.
..............................Site Info...........................

 -   http://www.scenetime.com  *_*    

Scenetime .Always on time . friendly online private torrent community ..

     We care to share . Join us on  http://www.scenetime.com 

    Be the first to get new release at  http://www.scenetime.com

        Seed back for speed


...................................NFO:.................................................[img]http://www.horror-asylum.com/promotions/the_asylum_tapes_dvd_giveaway/main.gif[/img]




description:

no info  





Source-FEATURE Thanks




file nfo

Format                           : AVI
Format/Info                      : Audio Video Interleave
File size                        : 62.3 MiB
Duration                         : 1mn 11s
Overall bit rate                 : 7 310 Kbps

Video
ID                               : 0
Format                           : MPEG-4 Visual
Format profile                   : Advanced Simple@L5
Format settings, BVOP            : Yes
Format settings, QPel            : No
Format settings, GMC             : No warppoints
Format settings, Matrix          : Default (H.263)
Codec ID                         : XVID
Codec ID/Hint                    : XviD
Duration                         : 1mn 11s
Bit rate                         : 7 170 Kbps
Width                            : 720 pixels
Height                           : 576 pixels
Display aspect ratio             : 5:4
Frame rate                       : 25.000 fps
Standard                         : PAL
Color space                      : YUV
Chroma subsampling               : 4:2:0
Bit depth                        : 8 bits
Scan type                        : Progressive
Bits/(Pixel*Frame)               : 0.692
Stream size                      : 61.1 MiB (98%)
Writing library                  : XviD 1.2.1 (UTC 2008-12-04)

Audio
ID                               : 1
Format                           : AC-3
Format/Info                      : Audio Coding 3
Mode extension                   : CM (complete main)
Codec ID                         : 2000
Duration                         : 1mn 11s
Bit rate mode                    : Constant
Bit rate                         : 128 Kbps
Channel(s)                       : 6 channels
Channel positions                : Front: L C R, Side: L R, LFE
Sampling rate                    : 48.0 KHz
Bit depth                        : 16 bits
Stream size                      : 1.09 MiB (2%)
Alignment                        : Aligned on interleaves
Interleave, duration             : 32 ms (0.80 video frame)






Encoder - BallZac



screenies 

[IMG]http://i40.photobucket.com/albums/e243/tragedy42069/00-00-47.jpg[/IMG]

[IMG]http://i40.photobucket.com/albums/e243/tragedy42069/00-00-11.jpg[/IMG]



Greetz to CM8 Tragedy BBnRG dopeonarope MrSeeN jiinx UNiQUE and to all those who make this possible ;)
And All the ballwashers out there

[IMG]http://i40.photobucket.com/albums/e243/tragedy42069/NewEra1.png[/IMG]